<svg xmlns="http://www.w3.org/2000/svg" xml:space="preserve" width="694.79999" height="111.1" x="0px" y="0px" viewBox="0 0 694.79997 111.09999"><path d="M192.4 42.5h35.3V29h-62.2s-9 0-9-9V2.1h-26.9V20s0 22.4 22.4 22.4h13.5v4.5h-40.4v13.5h107.7l-4.5-13.5h-35.9zm130.1-9h4.5v26.9h22.4V2.1H327V20h-4.5V2.1H300v58.3h22.5zm223.7 17.9v18c0 13.5-4.5 22.4-22.4 22.4h-58.3l4.5 13.5h53.8c31.4 0 49.3-4.5 49.3-35.9V2.1h-26.9Zm135.1-17.9h13.5L690.3 20h-9V2.1h-26.9v58.3h26.9zm-407.9 8c1.2 4.9 1.9 11.5 1.9 18.9h22.4c0-16-6.7-29.8-16.4-36.3 1.9-6.8 3-14.2 3-22h-26.9c0 24.8-10 44.9-22.4 44.9l4.5 13.5c14.4-.1 26.1-7.4 33.9-19M394 34.7c2.8 3.4 4.8 13.6 4.8 25.7h22.4c0-19.1-9.6-35-22.4-39.3.4-1.8.8-3.7 1.1-5.6h21.3V2.1h-67.3v13.5h19.2C370.2 33.8 361.7 47 351.7 47l4.5 13.5c16.9-.1 30.2-10.3 37.8-25.8"/><path d="m413.7 20 4.5 13.5h16.4v26.9h26.9V2.1h-26.9V20Zm89.9 63.5c19 0 34.4-15.3 34.4-34.2V35.6c0-18.9-15.4-34.2-34.4-34.2s-34.4 15.3-34.4 34.2v13.7c0 18.9 15.4 34.2 34.4 34.2m-6.8-61.2a6.7 6.7 0 0 1 13.4 0v40.4a6.7 6.7 0 0 1-13.4 0zM207.2 64.9h-77.6l4.5 13.5h59.7s9 0 9 9v22.4h26.9V87.4c-.1-.1-.1-22.5-22.5-22.5m121.9 0h-87.4l4.5 13.5h69.4s9 0 9 9v22.5h26.9V87.4c0-.1 0-22.5-22.4-22.5M614 60.4h31.4V46.9h-31.5c-9 0-9-9-9-9V15.4h40.4V2.1h-67.1v22.5c0 35.8 35.8 35.8 35.8 35.8m-174.9 4.5h-58.3c-12.4 0-22.4 10-22.4 22.4 0 12.4 10 22.4 22.4 22.4h58.3c12.4 0 22.4-10 22.4-22.4 0-12.4-10-22.4-22.4-22.4m-4.5 22.4c0 5-4 9-9 9h-31.4c-5 0-9-4-9-9s4-9 9-9h31.4c5 0 9 4.1 9 9zm226.8-22.4h-58.3c-12.4 0-22.4 10-22.4 22.4 0 12.4 10 22.4 22.4 22.4h58.3c12.4 0 22.4-10 22.4-22.4 0-12.4-10.1-22.4-22.4-22.4m-4.5 22.4c0 5-4 9-9 9h-31.4c-5 0-9-4-9-9s4-9 9-9h31.4c4.9 0 9 4.1 9 9z"/><path d="M0 86.1c0 13.8 11.2 25 25 25h15.1L0 70.7Zm40.1-15.4 63.3-63.8C98.9 2.6 92.8 0 86.2 0H25C11.2 0 0 11.2 0 25v6.7zm0 40.4h46.1c13.8 0 25-11.2 25-25V39.4Z" style="fill:#007c36"/><path d="M40.1 70.7 0 31.7v39l40.1 40.4 71-71.6V25c0-7.1-3-13.5-7.8-18.1" style="fill:#fff100"/></svg>